<svg xmlns="http://www.w3.org/2000/svg" viewBox="0 0 1400 560" font-family="system-ui, -apple-system, sans-serif" font-size="12">
  <defs>
    <marker id="arr" viewBox="0 0 10 10" refX="9" refY="5" markerWidth="7" markerHeight="7" orient="auto-start-reverse">
      <path d="M0 0L10 5 0 10z" fill="#475569"/>
    </marker>
    <marker id="arr-r" viewBox="0 0 10 10" refX="9" refY="5" markerWidth="7" markerHeight="7" orient="auto-start-reverse">
      <path d="M0 0L10 5 0 10z" fill="#ef4444"/>
    </marker>
  </defs>

  <!-- Background -->
  <rect width="1400" height="560" fill="#f8fafc" rx="10"/>

  <!-- Title -->
  <text x="700" y="24" text-anchor="middle" font-size="16" font-weight="bold" fill="#0f172a">CI/CD Abuse Detector — Attack Taxonomy &amp; Detection Paths</text>

  <!-- Compromised Account -->
  <rect x="530" y="38" width="340" height="30" rx="15" fill="#450a0a" stroke="#dc2626" stroke-width="1.5"/>
  <text x="700" y="58" text-anchor="middle" font-weight="600" fill="#fca5a5">Compromised Developer Account</text>

  <line x1="700" y1="68" x2="700" y2="82" stroke="#ef4444" stroke-width="2" marker-end="url(#arr-r)"/>

  <!-- PR/Push -->
  <rect x="530" y="84" width="340" height="30" rx="6" fill="#fef3c7" stroke="#f59e0b" stroke-width="1.5"/>
  <text x="700" y="104" text-anchor="middle" font-weight="600" fill="#92400e">PR or Push modifies CI/CD files</text>

  <line x1="700" y1="114" x2="700" y2="128" stroke="#475569" stroke-width="1.5" marker-end="url(#arr)"/>

  <!-- Detection Pipeline box -->
  <rect x="400" y="130" width="600" height="78" rx="8" fill="#0f172a" stroke="#334155" stroke-width="1.5"/>
  <text x="700" y="150" text-anchor="middle" font-weight="700" font-size="13" fill="#e0e7ff">Detection Pipeline</text>

  <!-- Sub-step pills -->
  <rect x="416" y="158" width="70" height="18" rx="4" fill="#1e293b" stroke="#475569" stroke-width=".75"/>
  <text x="451" y="171" text-anchor="middle" font-size="8.5" fill="#94a3b8">Checkout</text>
  <text x="492" y="171" font-size="9" fill="#475569">&gt;</text>
  <rect x="500" y="158" width="70" height="18" rx="4" fill="#1e293b" stroke="#475569" stroke-width=".75"/>
  <text x="535" y="171" text-anchor="middle" font-size="8.5" fill="#94a3b8">File Filter</text>
  <text x="576" y="171" font-size="9" fill="#475569">&gt;</text>
  <rect x="584" y="158" width="76" height="18" rx="4" fill="#1e293b" stroke="#475569" stroke-width=".75"/>
  <text x="622" y="171" text-anchor="middle" font-size="8.5" fill="#94a3b8">Per-File Diff</text>
  <text x="666" y="171" font-size="9" fill="#475569">&gt;</text>
  <rect x="674" y="158" width="76" height="18" rx="4" fill="#1e293b" stroke="#3b82f6" stroke-width=".75"/>
  <text x="712" y="171" text-anchor="middle" font-size="8.5" fill="#60a5fa">Prescreen labels</text>
  <text x="756" y="171" font-size="9" fill="#475569">&gt;</text>
  <rect x="764" y="158" width="76" height="18" rx="4" fill="#1e293b" stroke="#475569" stroke-width=".75"/>
  <text x="802" y="171" text-anchor="middle" font-size="8.5" fill="#94a3b8">Enrichment</text>
  <text x="846" y="171" font-size="9" fill="#475569">&gt;</text>
  <rect x="854" y="158" width="76" height="18" rx="4" fill="#1e293b" stroke="#6366f1" stroke-width="1"/>
  <text x="892" y="171" text-anchor="middle" font-size="8.5" font-weight="600" fill="#a5b4fc">Copilot AI</text>

  <!-- Exit branch text -->
  <text x="535" y="199" text-anchor="middle" font-size="8" fill="#16a34a">no CI files found → exit clean</text>

  <!-- Arrow out of pipeline -->
  <line x1="700" y1="208" x2="700" y2="228" stroke="#475569" stroke-width="1.5" marker-end="url(#arr)"/>

  <!-- Fan-out connector -->
  <line x1="56" y1="230" x2="1344" y2="230" stroke="#cbd5e1" stroke-width="2"/>

  <!-- Vertical drops (9 columns) -->
  <line x1="78" y1="230" x2="78" y2="258" stroke="#cbd5e1" stroke-width="1.5"/>
  <line x1="234" y1="230" x2="234" y2="258" stroke="#cbd5e1" stroke-width="1.5"/>
  <line x1="390" y1="230" x2="390" y2="258" stroke="#cbd5e1" stroke-width="1.5"/>
  <line x1="544" y1="230" x2="544" y2="258" stroke="#cbd5e1" stroke-width="1.5"/>
  <line x1="700" y1="230" x2="700" y2="258" stroke="#cbd5e1" stroke-width="1.5"/>
  <line x1="856" y1="230" x2="856" y2="258" stroke="#cbd5e1" stroke-width="1.5"/>
  <line x1="1010" y1="230" x2="1010" y2="258" stroke="#cbd5e1" stroke-width="1.5"/>
  <line x1="1166" y1="230" x2="1166" y2="258" stroke="#cbd5e1" stroke-width="1.5"/>
  <line x1="1322" y1="230" x2="1322" y2="258" stroke="#cbd5e1" stroke-width="1.5"/>

  <!-- ATTACK CARDS (9 cards, 136px wide, 16px gap) -->

  <!-- Card 1: SECRET EXFILTRATION (x-center=78) -->
  <rect x="10" y="260" width="136" height="176" rx="8" fill="#fff" stroke="#e2e8f0" stroke-width="1"/>
  <rect x="10" y="260" width="136" height="26" rx="8" fill="#dc2626"/>
  <rect x="10" y="278" width="136" height="8" fill="#dc2626"/>
  <text x="78" y="278" text-anchor="middle" font-size="8.5" font-weight="700" fill="#fff">SECRET EXFILTRATION</text>

  <text x="20" y="304" font-size="8" fill="#475569">secrets.* piped to curl</text>
  <text x="20" y="316" font-size="8" fill="#475569">POST external endpoint</text>

  <text x="20" y="334" font-size="7" font-weight="600" fill="#64748b">SIGNALS</text>
  <text x="20" y="346" font-size="7.5" fill="#3b82f6">secrets_context, curl_wget</text>
  <text x="20" y="358" font-size="7.5" fill="#3b82f6">cloud_auth_action</text>

  <rect x="20" y="376" width="116" height="20" rx="10" fill="#450a0a" stroke="#dc2626" stroke-width="1"/>
  <text x="78" y="390" text-anchor="middle" font-size="8" font-weight="700" fill="#fca5a5">malicious / critical</text>

  <text x="78" y="420" text-anchor="middle" font-size="7" font-style="italic" fill="#94a3b8">GhostAction (2025)</text>

  <!-- Card 2: PRIVILEGED TRIGGER (x-center=234) -->
  <rect x="166" y="260" width="136" height="176" rx="8" fill="#fff" stroke="#e2e8f0" stroke-width="1"/>
  <rect x="166" y="260" width="136" height="26" rx="8" fill="#dc2626"/>
  <rect x="166" y="278" width="136" height="8" fill="#dc2626"/>
  <text x="234" y="278" text-anchor="middle" font-size="8.5" font-weight="700" fill="#fff">PRIVILEGED TRIGGER</text>

  <text x="176" y="304" font-size="8" fill="#475569">pull_request_target with</text>
  <text x="176" y="316" font-size="8" fill="#475569">checkout of PR head SHA</text>

  <text x="176" y="334" font-size="7" font-weight="600" fill="#64748b">SIGNALS</text>
  <text x="176" y="346" font-size="7.5" fill="#3b82f6">pull_request_target</text>
  <text x="176" y="358" font-size="7.5" fill="#3b82f6">checkout_ref, workflow_run</text>

  <rect x="176" y="376" width="116" height="20" rx="10" fill="#450a0a" stroke="#dc2626" stroke-width="1"/>
  <text x="234" y="390" text-anchor="middle" font-size="8" font-weight="700" fill="#fca5a5">malicious / critical</text>

  <text x="234" y="420" text-anchor="middle" font-size="7" font-style="italic" fill="#94a3b8">Grafana / Orca / Trivy</text>

  <!-- Card 3: PERMISSION ESCALATION (x-center=390) -->
  <rect x="322" y="260" width="136" height="176" rx="8" fill="#fff" stroke="#e2e8f0" stroke-width="1"/>
  <rect x="322" y="260" width="136" height="26" rx="8" fill="#ea580c"/>
  <rect x="322" y="278" width="136" height="8" fill="#ea580c"/>
  <text x="390" y="278" text-anchor="middle" font-size="8" font-weight="700" fill="#fff">PERMISSION ESCALATION</text>

  <text x="332" y="304" font-size="8" fill="#475569">permissions: write-all</text>
  <text x="332" y="316" font-size="8" fill="#475569">OIDC token minting</text>

  <text x="332" y="334" font-size="7" font-weight="600" fill="#64748b">SIGNALS</text>
  <text x="332" y="346" font-size="7.5" fill="#3b82f6">write_all, id_token_write</text>
  <text x="332" y="358" font-size="7.5" fill="#3b82f6">actions_id_token_url</text>

  <rect x="332" y="376" width="116" height="20" rx="10" fill="#431407" stroke="#ea580c" stroke-width="1"/>
  <text x="390" y="390" text-anchor="middle" font-size="8" font-weight="700" fill="#fdba74">suspicious / high</text>

  <text x="390" y="420" text-anchor="middle" font-size="7" font-style="italic" fill="#94a3b8">Common pattern</text>

  <!-- Card 4: RUNNER TARGETING (x-center=544) -->
  <rect x="476" y="260" width="136" height="176" rx="8" fill="#fff" stroke="#e2e8f0" stroke-width="1"/>
  <rect x="476" y="260" width="136" height="26" rx="8" fill="#dc2626"/>
  <rect x="476" y="278" width="136" height="8" fill="#dc2626"/>
  <text x="544" y="278" text-anchor="middle" font-size="8.5" font-weight="700" fill="#fff">RUNNER TARGETING</text>

  <text x="486" y="304" font-size="8" fill="#475569">self-hosted + container</text>
  <text x="486" y="316" font-size="8" fill="#475569">escape, /proc/mem scrape</text>

  <text x="486" y="334" font-size="7" font-weight="600" fill="#64748b">SIGNALS</text>
  <text x="486" y="346" font-size="7.5" fill="#3b82f6">self_hosted, proc_mem_read</text>
  <text x="486" y="358" font-size="7.5" fill="#3b82f6">container_escape, k8s_secret</text>

  <rect x="486" y="376" width="116" height="20" rx="10" fill="#450a0a" stroke="#dc2626" stroke-width="1"/>
  <text x="544" y="390" text-anchor="middle" font-size="8" font-weight="700" fill="#fca5a5">malicious / critical</text>

  <text x="544" y="420" text-anchor="middle" font-size="7" font-style="italic" fill="#94a3b8">Trivy/Aqua (2026)</text>

  <!-- Card 5: SUPPLY CHAIN (x-center=700) -->
  <rect x="632" y="260" width="136" height="176" rx="8" fill="#fff" stroke="#e2e8f0" stroke-width="1"/>
  <rect x="632" y="260" width="136" height="26" rx="8" fill="#ea580c"/>
  <rect x="632" y="278" width="136" height="8" fill="#ea580c"/>
  <text x="700" y="278" text-anchor="middle" font-size="8.5" font-weight="700" fill="#fff">SUPPLY CHAIN</text>

  <text x="642" y="304" font-size="8" fill="#475569">lockfile swap, npm worm,</text>
  <text x="642" y="316" font-size="8" fill="#475569">artifact upload, curl|bash</text>

  <text x="642" y="334" font-size="7" font-weight="600" fill="#64748b">SIGNALS</text>
  <text x="642" y="346" font-size="7.5" fill="#3b82f6">lockfile_registry_swap</text>
  <text x="642" y="358" font-size="7.5" fill="#3b82f6">curl_pipe_bash, upload_artifact</text>

  <rect x="642" y="376" width="116" height="20" rx="10" fill="#431407" stroke="#ea580c" stroke-width="1"/>
  <text x="700" y="390" text-anchor="middle" font-size="8" font-weight="700" fill="#fdba74">suspicious / high</text>

  <text x="700" y="420" text-anchor="middle" font-size="7" font-style="italic" fill="#94a3b8">ArtiPACKED / Shai-Hulud</text>

  <!-- Card 6: CROSS-PLATFORM (x-center=856) -->
  <rect x="788" y="260" width="136" height="176" rx="8" fill="#fff" stroke="#e2e8f0" stroke-width="1"/>
  <rect x="788" y="260" width="136" height="26" rx="8" fill="#dc2626"/>
  <rect x="788" y="278" width="136" height="8" fill="#dc2626"/>
  <text x="856" y="278" text-anchor="middle" font-size="8.5" font-weight="700" fill="#fff">CROSS-PLATFORM</text>

  <text x="798" y="304" font-size="8" fill="#475569">Azure DevOps SPN, GitLab</text>
  <text x="798" y="316" font-size="8" fill="#475569">CI vars, double-base64 exfil</text>

  <text x="798" y="334" font-size="7" font-weight="600" fill="#64748b">SIGNALS</text>
  <text x="798" y="346" font-size="7.5" fill="#3b82f6">ado_spn_exposure, double_base64</text>
  <text x="798" y="358" font-size="7.5" fill="#3b82f6">env_null_dump, persist_creds</text>

  <rect x="798" y="376" width="116" height="20" rx="10" fill="#450a0a" stroke="#dc2626" stroke-width="1"/>
  <text x="856" y="390" text-anchor="middle" font-size="8" font-weight="700" fill="#fca5a5">malicious / critical</text>

  <text x="856" y="420" text-anchor="middle" font-size="7" font-style="italic" fill="#94a3b8">Nord Stream (2023-26)</text>

  <!-- Card 7: IDE POISONING (x-center=1010) -->
  <rect x="942" y="260" width="136" height="176" rx="8" fill="#fff" stroke="#e2e8f0" stroke-width="1"/>
  <rect x="942" y="260" width="136" height="26" rx="8" fill="#dc2626"/>
  <rect x="942" y="278" width="136" height="8" fill="#dc2626"/>
  <text x="1010" y="278" text-anchor="middle" font-size="8.5" font-weight="700" fill="#fff">IDE POISONING</text>

  <text x="952" y="304" font-size="8" fill="#475569">VS Code auto-exec, devcon-</text>
  <text x="952" y="316" font-size="8" fill="#475569">tainer lifecycle, postinstall</text>

  <text x="952" y="334" font-size="7" font-weight="600" fill="#64748b">SIGNALS</text>
  <text x="952" y="346" font-size="7.5" fill="#3b82f6">vscode_auto_task, curl_pipe_node</text>
  <text x="952" y="358" font-size="7.5" fill="#3b82f6">devcontainer_lifecycle</text>

  <rect x="952" y="376" width="116" height="20" rx="10" fill="#450a0a" stroke="#dc2626" stroke-width="1"/>
  <text x="1010" y="390" text-anchor="middle" font-size="8" font-weight="700" fill="#fca5a5">malicious / critical</text>

  <text x="1010" y="420" text-anchor="middle" font-size="7" font-style="italic" fill="#94a3b8">Lazarus / Contagious (2025)</text>

  <!-- Card 8: DEFENSE EVASION (x-center=1166) -->
  <rect x="1098" y="260" width="136" height="176" rx="8" fill="#fff" stroke="#e2e8f0" stroke-width="1"/>
  <rect x="1098" y="260" width="136" height="26" rx="8" fill="#7c3aed"/>
  <rect x="1098" y="278" width="136" height="8" fill="#7c3aed"/>
  <text x="1166" y="278" text-anchor="middle" font-size="8.5" font-weight="700" fill="#fff">DEFENSE EVASION</text>

  <text x="1108" y="304" font-size="8" fill="#475569">Backdated commits with</text>
  <text x="1108" y="316" font-size="8" fill="#475569">trojanized config files</text>

  <text x="1108" y="334" font-size="7" font-weight="600" fill="#64748b">SIGNALS</text>
  <text x="1108" y="346" font-size="7.5" fill="#3b82f6">backdated_commits</text>
  <text x="1108" y="358" font-size="7.5" fill="#94a3b8">(metadata label)</text>

  <rect x="1108" y="376" width="116" height="20" rx="10" fill="#431407" stroke="#ea580c" stroke-width="1"/>
  <text x="1166" y="390" text-anchor="middle" font-size="8" font-weight="700" fill="#fdba74">suspicious / high</text>

  <text x="1166" y="420" text-anchor="middle" font-size="7" font-style="italic" fill="#94a3b8">XCTDH / DEV#POPPER</text>

  <!-- Card 9: BENIGN (x-center=1322) -->
  <rect x="1254" y="260" width="136" height="176" rx="8" fill="#fff" stroke="#e2e8f0" stroke-width="1"/>
  <rect x="1254" y="260" width="136" height="26" rx="8" fill="#16a34a"/>
  <rect x="1254" y="278" width="136" height="8" fill="#16a34a"/>
  <text x="1322" y="278" text-anchor="middle" font-size="8.5" font-weight="700" fill="#fff">BENIGN</text>

  <text x="1264" y="304" font-size="8" fill="#475569">Lint workflows, cache</text>
  <text x="1264" y="316" font-size="8" fill="#475569">optimization, SHA pinning</text>

  <text x="1264" y="334" font-size="7" font-weight="600" fill="#64748b">SIGNALS</text>
  <text x="1264" y="346" font-size="7.5" fill="#94a3b8">none (or false positives)</text>

  <rect x="1264" y="376" width="116" height="20" rx="10" fill="#052e16" stroke="#16a34a" stroke-width="1"/>
  <text x="1322" y="390" text-anchor="middle" font-size="8" font-weight="700" fill="#86efac">benign / low</text>

  <text x="1322" y="420" text-anchor="middle" font-size="7" font-style="italic" fill="#94a3b8">Normal development</text>

  <!-- LEGEND -->
  <rect x="16" y="452" width="1368" height="44" rx="6" fill="#f1f5f9" stroke="#e2e8f0" stroke-width="1"/>

  <!-- Severity -->
  <text x="36" y="472" font-size="9" font-weight="600" fill="#64748b">SEVERITY:</text>
  <circle cx="104" cy="468" r="5" fill="#dc2626"/>
  <text x="114" y="472" font-size="9" fill="#475569">Critical</text>
  <circle cx="168" cy="468" r="5" fill="#ea580c"/>
  <text x="178" y="472" font-size="9" fill="#475569">High</text>
  <circle cx="218" cy="468" r="5" fill="#f59e0b"/>
  <text x="228" y="472" font-size="9" fill="#475569">Medium</text>
  <circle cx="282" cy="468" r="5" fill="#16a34a"/>
  <text x="292" y="472" font-size="9" fill="#475569">Low</text>

  <!-- Category -->
  <text x="348" y="472" font-size="9" font-weight="600" fill="#64748b">CATEGORY:</text>
  <rect x="420" y="462" width="10" height="10" rx="2" fill="#dc2626"/>
  <text x="435" y="472" font-size="9" fill="#475569">Credential Harvest</text>
  <rect x="542" y="462" width="10" height="10" rx="2" fill="#ea580c"/>
  <text x="557" y="472" font-size="9" fill="#475569">Privilege / Supply Chain</text>
  <rect x="690" y="462" width="10" height="10" rx="2" fill="#7c3aed"/>
  <text x="705" y="472" font-size="9" fill="#475569">Evasion</text>
  <rect x="760" y="462" width="10" height="10" rx="2" fill="#16a34a"/>
  <text x="775" y="472" font-size="9" fill="#475569">Benign</text>

  <!-- Stats -->
  <text x="36" y="490" font-size="8.5" fill="#94a3b8">50+ prescreen labels · LLM primary · 15 real-world incidents (2021–2026) · 41 example diffs · GitHub, GitLab, Azure DevOps</text>
</svg>
